<?xml version="1.0" encoding="UTF-8"?>
<svg width="500" height="500" version="1.1" viewBox="0 0 500.00001 500.00001" xmlns="http://www.w3.org/2000/svg">
 <g transform="translate(0 -552.36)">
  <path d="m88.033 661.66c-7.0653 0-12.752 5.6886-12.752 12.754v207.45c0 7.0653 5.6867 12.752 12.752 12.752h122.43v39.17h-13.889c-2.5684 0-4.6367 2.0684-4.6367 4.6367 0 2.5684 2.0684 4.6367 4.6367 4.6367h106.85c2.5684 0 4.6367-2.0684 4.6367-4.6367 0-2.5684-2.0684-4.6367-4.6367-4.6367h-13.889v-39.17h122.43c7.0653-1e-5 12.752-5.6867 12.752-12.752v-207.45c0-7.0653-5.6866-12.754-12.752-12.754zm3.4863 15.789h316.96v200.05h-316.96z" fill="#555"/>
 </g>
</svg>
