<?xml version="1.0" encoding="UTF-8"?>
<svg width="767.77" height="800" version="1.1" viewBox="0 0 767.77302 800.00001" xmlns="http://www.w3.org/2000/svg">
 <defs>
  <mask id="a" maskUnits="userSpaceOnUse">
   <circle cx="400" cy="400" r="400" color="#000000" color-rendering="auto" fill="#fff" fill-rule="evenodd" image-rendering="auto" shape-rendering="auto" solid-color="#000000" stroke-width="0" style="isolation:auto;mix-blend-mode:normal"/>
  </mask>
 </defs>
 <path transform="matrix(2.4113 0 0 2.4113 -580.63 -564.52)" d="m399.99 234.11c-51.824 2.4e-4 -93.835 42.012-93.835 93.835-6.5e-4 51.824 42.011 93.837 93.835 93.837 51.824-2.3e-4 93.836-42.013 93.835-93.837-2.4e-4 -51.824-42.012-93.835-93.835-93.835zm84.258 185.78c-22.985 21.114-53.047 32.853-84.258 32.901-31.166-0.0566-61.183-11.769-84.151-32.835-46.6 30.851-74.96 85.053-75.04 143.42 0.0313 0.83786 0.0686 1.6754 0.11151 2.5127h318.18c0.0436-0.83725 0.0813-1.6748 0.11311-2.5127-0.0349-58.365-28.354-112.59-74.931-143.48z" color="#000000" color-rendering="auto" fill="#404040" image-rendering="auto" mask="url(#a)" shape-rendering="auto" solid-color="#000000" stroke-width="0" style="isolation:auto;mix-blend-mode:normal"/>
</svg>